<svg width="17" height="17" viewBox="0 0 17 17" fill="none" xmlns="http://www.w3.org/2000/svg">
<path d="M0.00671387 4.23633C0.0153267 5.58764 0.661936 6.78734 1.65906 7.5498C1.66886 7.55739 1.70211 7.59415 1.7323 7.68848C1.76082 7.77767 1.77722 7.89154 1.77722 8.01172C1.77722 8.13189 1.76082 8.24577 1.7323 8.33496C1.70211 8.42929 1.66886 8.46605 1.65906 8.47363C0.655205 9.24125 0.00671387 10.4521 0.00671387 11.8145V11.8418C0.0214605 14.1508 1.89743 16.0176 4.20984 16.0176H11.8427C14.1516 16.0029 16.0184 14.1269 16.0184 11.8145C16.0184 10.4627 15.38 9.25968 14.3895 8.49121L14.3661 8.47363C14.3563 8.46603 14.323 8.42926 14.2928 8.33496C14.2643 8.24577 14.2479 8.1319 14.2479 8.01172C14.2479 7.89154 14.2643 7.77767 14.2928 7.68848C14.307 7.64418 14.322 7.61263 14.3348 7.59082L14.3641 7.55176L14.3671 7.5498L14.3661 7.54883C15.3697 6.7812 16.0184 5.57123 16.0184 4.20898C16.0184 1.88745 14.1368 0.00587782 11.8153 0.00585938H4.20984C1.89743 0.00587703 0.0214608 1.87266 0.00671387 4.18164V4.23633ZM7.53308 6.91406C7.53409 6.79973 7.55986 6.74906 7.56726 6.73926C8.09852 6.03536 8.41296 5.15843 8.41296 4.20898C8.41296 3.25953 8.09853 2.3826 7.56726 1.67871C7.55986 1.66891 7.53408 1.61827 7.53308 1.50391C7.53218 1.39757 7.55296 1.27048 7.59265 1.14844C7.63276 1.02515 7.68666 0.925117 7.73914 0.862305C7.77128 0.823872 7.79209 0.811205 7.79968 0.807617H11.8378C13.7062 0.819714 15.2167 2.33771 15.2167 4.20898C15.2167 6.08777 13.6941 7.61131 11.8153 7.61133H7.80164L7.7821 7.59961C7.77156 7.59141 7.75726 7.57733 7.73914 7.55566C7.68666 7.49284 7.63276 7.39282 7.59265 7.26953C7.55296 7.14749 7.53218 7.02039 7.53308 6.91406ZM7.53308 14.5195C7.53408 14.4052 7.55986 14.3545 7.56726 14.3447C8.09853 13.6408 8.41296 12.7639 8.41296 11.8145C8.41296 10.865 8.09852 9.98807 7.56726 9.28418C7.55986 9.27437 7.53409 9.2237 7.53308 9.10938C7.53218 9.00304 7.55296 8.87594 7.59265 8.75391C7.63276 8.63061 7.68666 8.5306 7.73914 8.46777C7.77469 8.42528 7.79632 8.41424 7.80164 8.41211H11.8153L11.8378 8.41309C13.7062 8.42518 15.2167 9.94316 15.2167 11.8145C15.2167 13.6932 13.6941 15.2158 11.8153 15.2158H7.79968C7.79209 15.2122 7.77128 15.1996 7.73914 15.1611C7.68666 15.0983 7.63276 14.9983 7.59265 14.875C7.55296 14.753 7.53218 14.6259 7.53308 14.5195ZM0.808472 4.18652C0.820549 2.31812 2.33856 0.807635 4.20984 0.807617H4.2323C6.10076 0.819685 7.61217 2.33769 7.61218 4.20898C7.61218 6.08778 6.08863 7.61133 4.20984 7.61133C2.33854 7.61131 0.820519 6.09988 0.808472 4.23145V4.18652ZM0.808472 11.8145C0.808472 9.93567 2.33106 8.41213 4.20984 8.41211L4.2323 8.41309C6.10077 8.42515 7.61218 9.94314 7.61218 11.8145C7.61217 13.6932 6.08862 15.2158 4.20984 15.2158C2.33107 15.2158 0.808487 13.6932 0.808472 11.8145Z" fill="white" stroke="white" stroke-width="0.0125266"/>
</svg>
