<svg width="193" height="193" viewBox="0 0 193 193" fill="none" xmlns="http://www.w3.org/2000/svg">
<path d="M0.0751953 50.5283L0.0761719 50.8311V50.8438L0.0869141 51.6025C0.422711 67.509 8.12434 81.6043 19.9033 90.6113C20.0195 90.7004 20.4205 91.1378 20.7842 92.2754C21.1264 93.3457 21.3271 94.7084 21.3271 96.1504C21.3272 97.5924 21.1263 98.9551 20.7842 100.025C20.4205 101.163 20.0195 101.6 19.9033 101.689C7.85709 110.901 0.0751953 125.434 0.0751953 141.783C0.0751947 141.786 0.0751851 141.79 0.0751953 141.794L0.0761719 142.096V142.109L0.0771484 142.108C0.252659 169.817 22.7678 192.225 50.5176 192.226H141.783L142.108 192.225H142.109C169.818 192.049 192.225 169.533 192.226 141.783C192.226 125.562 184.565 111.129 172.68 101.907H172.679L172.397 101.69C172.282 101.602 171.881 101.164 171.517 100.025C171.174 98.9551 170.974 97.5924 170.974 96.1504C170.974 94.7084 171.174 93.3457 171.517 92.2754C171.858 91.2089 172.232 90.7567 172.374 90.6309L172.373 90.6299L172.4 90.6094L172.399 90.6084C184.444 81.397 192.226 66.8654 192.226 50.5176C192.225 22.6591 169.642 0.0754167 141.783 0.0751953H50.5176C22.7677 0.0754072 0.251683 22.4834 0.0761719 50.1924C0.075476 50.3024 0.075196 50.411 0.0751953 50.5176C0.0751953 50.5207 0.0751865 50.5248 0.0751953 50.5283ZM90.4023 82.9814C90.414 81.6076 90.7129 80.9995 90.8018 80.8818C97.1782 72.4346 100.961 61.9123 100.961 50.5176C100.961 39.1231 97.1781 28.6014 90.8018 20.1543C90.7129 20.0366 90.4141 19.4284 90.4023 18.0547C90.3915 16.7788 90.6371 15.2583 91.1133 13.7939C91.5951 12.3123 92.2405 11.1094 92.8711 10.3555C93.2838 9.86204 93.5394 9.7267 93.6133 9.69531H141.782L142.047 9.69629C164.471 9.83833 182.605 28.0603 182.605 50.5176C182.605 73.063 164.329 91.3396 141.783 91.3398H93.6133C93.5391 91.3083 93.2834 91.1736 92.8711 90.6807C92.2405 89.9268 91.5952 88.724 91.1133 87.2422C90.6371 85.7778 90.3915 84.2574 90.4023 82.9814ZM90.4023 174.246C90.4141 172.872 90.7129 172.264 90.8018 172.146C97.1781 163.699 100.961 153.178 100.961 141.783C100.961 130.388 97.1782 119.866 90.8018 111.419C90.7129 111.301 90.414 110.693 90.4023 109.319C90.3915 108.043 90.6371 106.523 91.1133 105.059C91.5952 103.577 92.2405 102.374 92.8711 101.62C93.2834 101.127 93.5391 100.993 93.6133 100.961H141.782L142.047 100.962C164.471 101.104 182.605 119.326 182.605 141.783C182.605 164.328 164.328 182.605 141.783 182.605H93.6133C93.5394 182.574 93.2838 182.439 92.8711 181.945C92.2405 181.191 91.5951 179.988 91.1133 178.507C90.6371 177.042 90.3915 175.522 90.4023 174.246ZM9.69629 50.2539C9.83832 27.8306 28.0604 9.69552 50.5176 9.69531L50.7822 9.69629C73.206 9.83847 91.3397 28.0604 91.3398 50.5176C91.3398 73.0631 73.0631 91.3398 50.5176 91.3398C28.0604 91.3396 9.83832 73.2056 9.69629 50.7822C9.69574 50.6949 9.69531 50.6065 9.69531 50.5176C9.69531 50.4288 9.69574 50.341 9.69629 50.2539ZM9.69531 141.783C9.69531 119.238 27.9722 100.961 50.5176 100.961L50.7822 100.962C73.2061 101.104 91.3398 119.326 91.3398 141.783C91.3397 164.329 73.063 182.605 50.5176 182.605C27.9723 182.605 9.69549 164.328 9.69531 141.783Z" fill="white" stroke="white" stroke-width="0.150319"/>
</svg>
