<svg width="257" height="257" viewBox="0 0 257 257" fill="none" xmlns="http://www.w3.org/2000/svg">
<path d="M0.0998535 67.3721L0.101807 67.7754V67.793L0.102783 67.792C0.23974 89.414 10.5827 108.615 26.5374 120.815C26.6918 120.934 27.2268 121.516 27.7122 123.034C28.1684 124.461 28.4358 126.278 28.4358 128.201C28.4358 130.124 28.1684 131.941 27.7122 133.368C27.2268 134.886 26.6918 135.469 26.5374 135.587C10.4757 147.869 0.0998535 167.246 0.0998535 189.045C0.0998527 189.049 0.0998412 189.054 0.0998535 189.059L0.101807 189.462V189.479L0.102783 189.479C0.336798 226.424 30.3569 256.301 67.3567 256.302H189.044L189.479 256.3C226.423 256.066 256.301 226.045 256.301 189.045C256.301 167.417 246.086 148.173 230.239 135.877V135.876L229.864 135.588C229.709 135.47 229.174 134.886 228.689 133.368C228.232 131.941 227.965 130.124 227.965 128.201C227.965 126.278 228.232 124.461 228.689 123.034C229.141 121.618 229.637 121.014 229.828 120.843L229.863 120.814L229.864 120.815C245.925 108.534 256.301 89.1558 256.301 67.3574C256.301 30.2128 226.189 0.100881 189.044 0.100586H67.3567C30.3569 0.100868 0.335821 29.9785 0.101807 66.9238C0.100879 67.0705 0.0998544 67.2154 0.0998535 67.3574C0.0998535 67.3616 0.0998403 67.3673 0.0998535 67.3721ZM120.536 110.643C120.552 108.811 120.95 108 121.069 107.843C129.571 96.5798 134.615 82.5504 134.615 67.3574C134.614 52.1647 129.57 38.1359 121.069 26.873C120.95 26.7161 120.552 25.905 120.536 24.0732C120.522 22.372 120.849 20.3441 121.484 18.3916C122.126 16.4159 122.988 14.8128 123.828 13.8076C124.38 13.1479 124.721 12.9689 124.819 12.9277H189.043L189.396 12.9297C219.294 13.1191 243.474 37.4144 243.474 67.3574C243.474 97.4179 219.105 121.787 189.044 121.787H124.817C124.717 121.744 124.377 121.564 123.828 120.908C122.988 119.903 122.126 118.3 121.484 116.324C120.849 114.372 120.522 112.344 120.536 110.643ZM120.536 232.329C120.552 230.497 120.95 229.686 121.069 229.529C129.57 218.266 134.614 204.238 134.615 189.045C134.615 173.852 129.571 159.823 121.069 148.56C120.95 148.403 120.552 147.592 120.536 145.76C120.522 144.059 120.849 142.031 121.484 140.078C122.126 138.102 122.988 136.499 123.828 135.494C124.377 134.839 124.717 134.658 124.817 134.615H189.043L189.396 134.616C219.294 134.806 243.474 159.102 243.474 189.045C243.474 219.105 219.104 243.474 189.044 243.475H124.819C124.721 243.433 124.38 243.254 123.828 242.595C122.988 241.59 122.126 239.986 121.484 238.011C120.849 236.058 120.522 234.03 120.536 232.329ZM12.929 67.0049C13.1185 37.1072 37.414 12.928 67.3567 12.9277L67.7092 12.9297L68.4084 12.9385C97.9838 13.4987 121.786 37.6482 121.786 67.3574C121.786 97.4181 97.4174 121.787 67.3567 121.787C37.414 121.787 13.1186 97.6085 12.929 67.7109C12.9282 67.5945 12.927 67.4761 12.927 67.3574C12.927 67.2389 12.9282 67.1212 12.929 67.0049ZM12.927 189.045C12.927 158.984 37.2962 134.616 67.3567 134.615L67.7092 134.616L68.4084 134.625C97.9839 135.185 121.786 159.335 121.786 189.045C121.786 219.105 97.4172 243.475 67.3567 243.475C37.2964 243.474 12.9272 219.105 12.927 189.045Z" fill="white" stroke="white" stroke-width="0.200425"/>
</svg>
