<svg width="33" height="33" viewBox="0 0 33 33" fill="none" xmlns="http://www.w3.org/2000/svg">
<path d="M0.0124512 8.47461C0.029675 11.1772 1.32289 13.5776 3.31714 15.1025C3.33658 15.1175 3.40404 15.1905 3.4646 15.3799C3.52154 15.5582 3.55444 15.7852 3.55444 16.0254C3.55444 16.2655 3.52154 16.4926 3.4646 16.6709C3.40404 16.8603 3.33658 16.9333 3.31714 16.9482C1.30943 18.4835 0.0124512 20.9061 0.0124512 23.6309V23.6855C0.0419412 28.3035 3.79485 32.0381 8.41968 32.0381H23.6853C28.3032 32.0086 32.0378 28.2557 32.0378 23.6309C32.0378 20.9273 30.761 18.5213 28.78 16.9844L28.7332 16.9482C28.7137 16.9333 28.6462 16.8602 28.5857 16.6709C28.5288 16.4926 28.4958 16.2655 28.4958 16.0254C28.4958 15.7853 28.5288 15.5582 28.5857 15.3799C28.6425 15.2021 28.7056 15.1264 28.7292 15.1055L28.7283 15.1045L28.7322 15.1016C30.7399 13.5663 32.0378 11.1447 32.0378 8.41992C32.0378 3.77685 28.2737 0.0127322 23.6306 0.0126953H8.41968C3.79485 0.0127306 0.0419417 3.74728 0.0124512 8.36523V8.47461ZM15.0671 13.8301C15.0691 13.6014 15.1187 13.5001 15.1335 13.4805C16.1963 12.0726 16.8269 10.319 16.8269 8.41992C16.8269 6.52081 16.1963 4.76724 15.1335 3.35938C15.1187 3.33971 15.0691 3.23841 15.0671 3.00977C15.0653 2.7971 15.1059 2.5429 15.1853 2.29883C15.2655 2.05225 15.3733 1.85219 15.4783 1.72656C15.5471 1.64432 15.59 1.62144 15.6023 1.61621H23.6746C27.4119 1.63988 30.4343 4.67704 30.4343 8.41992C30.4343 12.1775 27.3882 15.2236 23.6306 15.2236H15.6023C15.5899 15.2184 15.5469 15.1963 15.4783 15.1143C15.3732 14.9886 15.2656 14.7879 15.1853 14.541C15.1059 14.2969 15.0653 14.0427 15.0671 13.8301ZM15.0671 29.041C15.0691 28.8124 15.1187 28.7111 15.1335 28.6914C16.1963 27.2835 16.8269 25.53 16.8269 23.6309C16.8269 21.7318 16.1963 19.9782 15.1335 18.5703C15.1187 18.5507 15.0691 18.4493 15.0671 18.2207C15.0653 18.008 15.1059 17.7538 15.1853 17.5098C15.2656 17.2629 15.3732 17.0621 15.4783 16.9365C15.5469 16.8545 15.5899 16.8324 15.6023 16.8271H23.6746C27.4119 16.8508 30.4343 19.888 30.4343 23.6309C30.4343 27.3884 27.3882 30.4345 23.6306 30.4346H15.6023C15.59 30.4293 15.5471 30.4065 15.4783 30.3242C15.3733 30.1986 15.2655 29.9985 15.1853 29.752C15.1059 29.5079 15.0653 29.2537 15.0671 29.041ZM1.61597 8.37598C1.63964 4.63875 4.67682 1.61625 8.41968 1.61621H8.46362C12.2009 1.63988 15.2234 4.67704 15.2234 8.41992C15.2234 12.1775 12.1773 15.2236 8.41968 15.2236C4.67682 15.2236 1.63964 12.2011 1.61597 8.46387V8.37598ZM1.61597 23.6309C1.61597 19.8733 4.66212 16.8272 8.41968 16.8271H8.46362C12.201 16.8508 15.2234 19.888 15.2234 23.6309C15.2234 27.3884 12.1772 30.4346 8.41968 30.4346C4.66214 30.4345 1.616 27.3884 1.61597 23.6309Z" fill="white" stroke="white" stroke-width="0.0250531"/>
</svg>
