<svg width="49" height="49" viewBox="0 0 49 49" fill="none" xmlns="http://www.w3.org/2000/svg">
<path d="M0.019043 12.7109L0.0200195 12.71C0.0456989 16.7641 1.98458 20.3649 4.97607 22.6523C5.00532 22.6749 5.10503 22.7845 5.1958 23.0684C5.28135 23.3359 5.33154 23.6766 5.33154 24.0371C5.33154 24.3976 5.28135 24.7383 5.1958 25.0059C5.10503 25.2897 5.00532 25.3993 4.97607 25.4219C1.96452 27.7247 0.019043 31.3581 0.019043 35.4453V35.5264C0.0629207 42.4536 5.69194 48.0556 12.6294 48.0557H35.5269C42.454 48.0118 48.0561 42.3828 48.0562 35.4453C48.0562 31.39 46.1409 27.782 43.1694 25.4766L43.0991 25.4219C43.0698 25.3993 42.9701 25.2896 42.8794 25.0059C42.7938 24.7383 42.7437 24.3976 42.7437 24.0371C42.7437 23.6766 42.7938 23.3359 42.8794 23.0684C42.9433 22.8684 43.0118 22.7548 43.0571 22.6973L43.0933 22.6572L43.0981 22.6514L43.0991 22.6523C46.1107 20.3495 48.0562 16.7161 48.0562 12.6289C48.0561 5.6643 42.4104 0.01861 35.4458 0.0185547H12.6294C5.69194 0.0186077 0.0629207 5.62061 0.019043 12.5479V12.7109ZM22.6001 20.7451C22.603 20.4016 22.6785 20.2492 22.7007 20.2197C24.2947 18.108 25.2397 15.4775 25.2397 12.6289C25.2397 9.78033 24.2947 7.14984 22.7007 5.03809C22.6785 5.00865 22.603 4.85616 22.6001 4.5127C22.5974 4.19393 22.6589 3.81404 22.7778 3.44824C22.8983 3.07778 23.0606 2.77636 23.2183 2.58789C23.3187 2.46787 23.3817 2.43273 23.4019 2.42383H35.5122C41.118 2.45959 45.6508 7.01475 45.6509 12.6289C45.6509 18.2653 41.0821 22.8349 35.4458 22.835H23.4038C23.3861 22.8276 23.3223 22.7942 23.2183 22.6699C23.0606 22.4815 22.8983 22.1809 22.7778 21.8105C22.6588 21.4445 22.5974 21.0641 22.6001 20.7451ZM22.6001 43.5615C22.603 43.2181 22.6785 43.0656 22.7007 43.0361C24.2947 40.9244 25.2397 38.2939 25.2397 35.4453C25.2397 32.5968 24.2947 29.9663 22.7007 27.8545C22.6785 27.8251 22.603 27.6726 22.6001 27.3291C22.5974 27.0102 22.6588 26.6297 22.7778 26.2637C22.8983 25.8933 23.0606 25.5927 23.2183 25.4043C23.3223 25.28 23.3861 25.2467 23.4038 25.2393H35.4458L35.5122 25.2402C41.118 25.276 45.6509 29.8311 45.6509 35.4453C45.6508 41.0816 41.0821 45.6503 35.4458 45.6504H23.4019C23.3817 45.6415 23.3187 45.6063 23.2183 45.4863C23.0606 45.2979 22.8983 44.9964 22.7778 44.626C22.6589 44.2602 22.5974 43.8803 22.6001 43.5615ZM2.42432 12.5625C2.46002 6.95683 7.01523 2.42388 12.6294 2.42383H12.6958C18.3016 2.4595 22.8354 7.01469 22.8354 12.6289C22.8354 18.2653 18.2658 22.835 12.6294 22.835C7.01518 22.8349 2.45993 18.3011 2.42432 12.6953V12.5625ZM2.42432 35.4453C2.42432 29.809 6.99306 25.2393 12.6294 25.2393L12.6958 25.2402C18.3017 25.2759 22.8354 29.8311 22.8354 35.4453C22.8354 41.0816 18.2657 45.6504 12.6294 45.6504C6.99309 45.6503 2.42436 41.0816 2.42432 35.4453Z" fill="white" stroke="white" stroke-width="0.0375797"/>
</svg>
