<svg width="513" height="513" viewBox="0 0 513 513" fill="none" xmlns="http://www.w3.org/2000/svg">
<path d="M0.200684 134.742L0.202637 135.549V135.551L0.203613 135.584L0.20459 135.583C0.478657 178.827 21.1659 217.228 53.0747 241.628C53.3836 241.864 54.4546 243.03 55.4253 246.066C56.3378 248.92 56.8716 252.555 56.8716 256.4C56.8716 260.246 56.3378 263.88 55.4253 266.734C54.4546 269.77 53.3836 270.937 53.0747 271.173C20.9517 295.736 0.200715 334.49 0.200684 378.087C0.200684 378.095 0.200655 378.107 0.200684 378.116L0.202637 378.922V378.924L0.203613 378.957L0.20459 378.956C0.67279 452.847 60.7145 512.601 134.714 512.601H378.088L378.957 512.598H378.958C452.847 512.13 512.601 452.087 512.601 378.087C512.601 334.831 492.173 296.342 460.478 271.751H460.477L459.728 271.173H459.727C459.418 270.937 458.348 269.771 457.377 266.734C456.465 263.88 455.93 260.246 455.93 256.4C455.93 252.555 456.465 248.921 457.377 246.066C458.287 243.222 459.285 242.016 459.664 241.681L459.726 241.627L459.727 241.628C491.85 217.064 512.601 178.311 512.601 134.714C512.601 60.424 452.377 0.200307 378.087 0.200195H134.714C60.7145 0.200276 0.67182 59.954 0.203613 133.845C0.201753 134.139 0.200684 134.429 0.200684 134.714C0.200683 134.722 0.200657 134.733 0.200684 134.742ZM241.073 221.282C241.104 217.619 241.9 215.999 242.137 215.685C259.141 193.159 269.228 165.1 269.228 134.714C269.228 104.328 259.141 76.2692 242.137 53.7432C241.9 53.4291 241.104 51.808 241.073 48.1445C241.044 44.742 241.698 40.6873 242.968 36.7822C244.253 32.8307 245.975 29.6237 247.657 27.6133C248.751 26.3055 249.43 25.9411 249.631 25.8545H378.086L378.792 25.8564C438.589 26.2357 486.947 74.8277 486.947 134.714C486.947 194.835 438.209 243.573 378.087 243.573H249.631C249.43 243.487 248.751 243.122 247.657 241.814C245.975 239.804 244.253 236.597 242.968 232.646C241.698 228.74 241.044 224.685 241.073 221.282ZM241.073 464.656C241.104 460.993 241.9 459.372 242.137 459.058C259.141 436.532 269.228 408.473 269.228 378.087C269.228 347.701 259.141 319.642 242.137 297.116C241.9 296.802 241.104 295.181 241.073 291.519C241.044 288.116 241.698 284.06 242.968 280.155C244.253 276.204 245.975 272.997 247.657 270.986C248.751 269.678 249.43 269.314 249.631 269.228H378.086L378.792 269.229C438.589 269.609 486.947 318.201 486.947 378.087C486.947 438.208 438.209 486.946 378.087 486.946H249.631C249.43 486.86 248.751 486.495 247.657 485.188C245.975 483.177 244.253 479.97 242.968 476.019C241.698 472.114 241.044 468.059 241.073 464.656ZM25.8569 134.009C26.2357 74.2129 74.8283 25.8546 134.714 25.8545L135.419 25.8564C195.216 26.2358 243.574 74.8277 243.574 134.714C243.574 194.835 194.836 243.573 134.714 243.573C74.8283 243.573 26.2357 195.215 25.8569 135.419C25.8555 135.186 25.855 134.951 25.855 134.714C25.855 134.477 25.8555 134.242 25.8569 134.009ZM25.855 378.087C25.855 317.966 74.5931 269.228 134.714 269.228L135.419 269.229C195.216 269.609 243.574 318.201 243.574 378.087C243.574 438.208 194.836 486.946 134.714 486.946C74.593 486.946 25.855 438.208 25.855 378.087Z" fill="white" stroke="white" stroke-width="0.40085"/>
</svg>
