<svg width="97" height="97" viewBox="0 0 97 97" fill="none" xmlns="http://www.w3.org/2000/svg">
<path d="M0.0380859 25.4209L0.0537109 26.1787C0.333705 33.9768 4.15535 40.8727 9.95117 45.3047C10.0091 45.349 10.2106 45.5675 10.3926 46.1367C10.5636 46.6718 10.6631 47.3533 10.6631 48.0742C10.6631 48.7952 10.5636 49.4766 10.3926 50.0117C10.2106 50.581 10.0091 50.7995 9.95117 50.8438C3.92815 55.4494 0.0380859 62.7163 0.0380859 70.8906V71.0537C0.126036 84.908 11.384 96.1112 25.2588 96.1113H71.0547C84.9089 96.0235 96.1122 84.7655 96.1123 70.8906C96.1123 62.7801 92.2827 55.563 86.3398 50.9521L86.1992 50.8438C86.1413 50.7995 85.9398 50.581 85.7578 50.0117C85.5868 49.4766 85.4873 48.7952 85.4873 48.0742C85.4873 47.3533 85.5868 46.6718 85.7578 46.1367C85.9281 45.6042 86.1152 45.3777 86.1865 45.3145L86.1982 45.3037C92.2213 40.698 96.1123 33.4322 96.1123 25.2578C96.1122 11.3286 84.8208 0.0372201 70.8916 0.0371094H25.2588C11.384 0.0372153 0.126038 11.2404 0.0380859 25.0947V25.4209ZM45.2012 41.4893C45.2071 40.8026 45.356 40.4983 45.4004 40.4395C48.5886 36.2159 50.4805 30.9551 50.4805 25.2578C50.4804 19.5605 48.5886 14.2998 45.4004 10.0762C45.3559 10.0172 45.207 9.71299 45.2012 9.02637C45.1957 8.38838 45.3185 7.62774 45.5566 6.89551C45.7976 6.1548 46.1203 5.55367 46.4355 5.17676C46.6419 4.93004 46.7697 4.86237 46.8066 4.84668H70.8916L71.0234 4.84766C82.2354 4.91868 91.3026 14.0292 91.3027 25.2578C91.3027 36.5305 82.1643 45.6688 70.8916 45.6689H46.8057C46.7675 45.6525 46.6401 45.5843 46.4355 45.3398C46.1202 44.9629 45.7976 44.361 45.5566 43.6201C45.3185 42.8879 45.1957 42.1272 45.2012 41.4893ZM45.2012 87.1221C45.207 86.4354 45.3559 86.1313 45.4004 86.0723C48.5886 81.8487 50.4804 76.588 50.4805 70.8906C50.4805 65.1933 48.5886 59.9326 45.4004 55.709C45.356 55.6501 45.2071 55.3458 45.2012 54.6592C45.1957 54.0212 45.3185 53.2605 45.5566 52.5283C45.7976 51.7874 46.1202 51.1855 46.4355 50.8086C46.6401 50.5641 46.7675 50.4959 46.8057 50.4795H71.0234C82.2354 50.5505 91.3027 59.6619 91.3027 70.8906C91.3026 82.1632 82.1642 91.3017 70.8916 91.3018H46.8066C46.7697 91.2861 46.6419 91.2184 46.4355 90.9717C46.1203 90.5948 45.7976 89.9936 45.5566 89.2529C45.3185 88.5207 45.1957 87.7601 45.2012 87.1221ZM4.84863 25.126C4.91965 13.9143 14.0302 4.84679 25.2588 4.84668L25.3906 4.84766C36.6026 4.91868 45.6698 14.0292 45.6699 25.2578C45.6699 36.5306 36.5315 45.6689 25.2588 45.6689C14.0304 45.6688 4.91986 36.6021 4.84863 25.3906C4.84836 25.3469 4.84766 25.3023 4.84766 25.2578C4.84766 25.2134 4.84836 25.1695 4.84863 25.126ZM4.84766 70.8906C4.84766 59.6179 13.9861 50.4796 25.2588 50.4795H25.3906C36.6026 50.5505 45.6699 59.6619 45.6699 70.8906C45.6698 82.1633 36.5315 91.3017 25.2588 91.3018C13.9862 91.3017 4.84775 82.1632 4.84766 70.8906Z" fill="white" stroke="white" stroke-width="0.0751594"/>
</svg>
