<svg width="17" height="17" viewBox="0 0 17 17" fill="none" xmlns="http://www.w3.org/2000/svg">
<path fill-rule="evenodd" clip-rule="evenodd" d="M2.61744 16.0098C1.17726 16.0098 0.0097681 14.8423 0.00976562 13.4021V2.61744C0.00976562 1.17726 1.17726 0.00976562 2.61744 0.00976562H13.4021C14.8423 0.00976562 16.0098 1.17726 16.0098 2.61744V13.4021C16.0098 14.8423 14.8423 16.0098 13.4021 16.0098H2.61744Z" fill="black"/>
<path d="M1.81886 5.08714L1.81887 5.08794C1.82548 6.13217 2.32505 7.05947 3.09559 7.64867C3.10416 7.65523 3.13047 7.68447 3.15409 7.75837C3.17634 7.82795 3.18931 7.91635 3.18931 8.00976C3.18931 8.10317 3.17634 8.19157 3.15409 8.26115C3.13047 8.33505 3.10416 8.36429 3.09559 8.37085C2.31988 8.96401 1.8188 9.89981 1.8188 10.9526C1.8188 10.9528 1.8188 10.953 1.8188 10.9532L1.81886 10.9727L1.81887 10.9735C1.83017 12.7578 3.28005 14.2007 5.06696 14.2007H10.9526L10.9736 14.2007C12.7578 14.1894 14.2007 12.7395 14.2007 10.9526C14.2007 9.90804 13.7075 8.97864 12.9421 8.38482L12.924 8.37086C12.9154 8.36431 12.8891 8.33506 12.8654 8.26116C12.8432 8.19158 12.8302 8.10317 12.8302 8.00976C12.8302 7.91635 12.8432 7.82795 12.8654 7.75836C12.8876 7.68907 12.9121 7.65904 12.9221 7.65016L12.924 7.64866C13.6997 7.05551 14.2007 6.1197 14.2007 5.06696C14.2007 3.27305 12.7465 1.8188 10.9526 1.81879H5.06696C3.28005 1.8188 1.83017 3.2617 1.81887 5.04598C1.81882 5.05308 1.8188 5.06008 1.8188 5.06696C1.8188 5.06718 1.8188 5.06741 1.8188 5.06764L1.81886 5.08714ZM7.63422 7.16045C7.63498 7.07138 7.65432 7.03096 7.66094 7.02218C8.07155 6.47824 8.31512 5.80071 8.31512 5.06696C8.31512 4.33321 8.07155 3.65568 7.66094 3.11173C7.65432 3.10295 7.63498 3.06253 7.63422 2.97346C7.63351 2.89058 7.64945 2.792 7.6803 2.69713C7.71151 2.60116 7.7534 2.523 7.79458 2.47378C7.82299 2.43981 7.8404 2.43131 7.84507 2.42951H10.9526L10.9696 2.42957C12.4184 2.43875 13.59 3.61603 13.59 5.06696C13.59 6.52358 12.4092 7.7044 10.9526 7.7044H7.84507C7.8404 7.7026 7.82299 7.69411 7.79458 7.66013C7.7534 7.61091 7.71151 7.53275 7.6803 7.43679C7.64945 7.34192 7.63351 7.24333 7.63422 7.16045ZM7.63422 13.0461C7.63498 12.957 7.65432 12.9166 7.66094 12.9078C8.07155 12.3638 8.31512 11.6863 8.31512 10.9526C8.31512 10.2188 8.07155 9.54129 7.66094 8.99734C7.65431 8.98856 7.63498 8.94814 7.63422 8.85907C7.63351 8.77619 7.64945 8.6776 7.6803 8.58274C7.71151 8.48677 7.7534 8.40861 7.79458 8.35939C7.82299 8.32542 7.8404 8.31692 7.84507 8.31512H10.9526L10.9696 8.31518C12.4184 8.32435 13.59 9.50164 13.59 10.9526C13.59 12.4092 12.4092 13.59 10.9526 13.59H7.84507C7.8404 13.5882 7.82299 13.5797 7.79458 13.5457C7.7534 13.4965 7.71151 13.4184 7.6803 13.3224C7.64945 13.2275 7.63351 13.1289 7.63422 13.0461ZM2.42957 5.04987C2.43875 3.60113 3.61604 2.42951 5.06696 2.42951L5.08402 2.42957C6.53279 2.43875 7.70441 3.61603 7.70441 5.06696C7.70441 6.52358 6.52358 7.7044 5.06696 7.7044C3.61604 7.7044 2.43875 6.53278 2.42957 5.08404C2.42954 5.0784 2.42952 5.07271 2.42952 5.06696C2.42952 5.0612 2.42954 5.05551 2.42957 5.04987ZM2.42952 10.9526C2.42952 9.49595 3.61034 8.31512 5.06696 8.31512L5.08402 8.31518C6.53279 8.32435 7.70441 9.50164 7.70441 10.9526C7.70441 12.4092 6.52358 13.59 5.06696 13.59C3.61034 13.59 2.42952 12.4092 2.42952 10.9526Z" fill="white"/>
<path d="M13.4023 0.00488281C14.845 0.00502305 16.0145 1.17453 16.0146 2.61719V13.4023C16.0145 14.845 14.845 16.0145 13.4023 16.0146H2.61719C1.17453 16.0145 0.00502041 14.845 0.00488281 13.4023V2.61719C0.00501765 1.17453 1.17453 0.00501765 2.61719 0.00488281H13.4023Z" stroke="black" stroke-width="0.00969395"/>
</svg>

