<svg width="193" height="193" viewBox="0 0 193 193" fill="none" xmlns="http://www.w3.org/2000/svg">
<path fill-rule="evenodd" clip-rule="evenodd" d="M31.4083 192.117C14.1262 192.117 0.116241 178.107 0.116211 160.825V31.4092C0.116211 14.1271 14.1261 0.117188 31.4083 0.117188H160.824C178.106 0.117188 192.116 14.1271 192.116 31.4092V160.825C192.116 178.107 178.106 192.117 160.824 192.117H31.4083Z" fill="black"/>
<path d="M21.8253 61.0457L21.8254 61.0552C21.9048 73.586 27.8997 84.7136 37.1461 91.784C37.249 91.8627 37.5646 92.2137 37.8481 93.1005C38.1151 93.9354 38.2707 94.9962 38.2707 96.1171C38.2707 97.238 38.1151 98.2988 37.8481 99.1338C37.5646 100.021 37.2489 100.372 37.1461 100.45C27.8376 107.568 21.8246 118.798 21.8246 131.431C21.8246 131.433 21.8246 131.436 21.8246 131.439L21.8253 131.673L21.8254 131.683C21.961 153.094 39.3597 170.409 60.8026 170.409H131.43L131.682 170.408C153.093 170.272 170.408 152.874 170.408 131.431C170.408 118.896 164.488 107.744 155.304 100.618L155.086 100.45C154.984 100.372 154.668 100.021 154.384 99.1339C154.117 98.2989 153.962 97.238 153.962 96.1171C153.962 94.9962 154.117 93.9353 154.384 93.1003C154.65 92.2688 154.944 91.9084 155.065 91.8019L155.086 91.7839C164.395 84.6661 170.408 73.4364 170.408 60.8035C170.408 39.2766 152.957 21.8256 131.43 21.8255H60.8026C39.3597 21.8256 21.961 39.1405 21.8254 60.5517C21.8249 60.6369 21.8246 60.721 21.8246 60.8035C21.8246 60.8062 21.8246 60.809 21.8246 60.8117L21.8253 61.0457ZM91.6097 85.9254C91.6188 84.8566 91.8508 84.3715 91.9304 84.2662C96.8576 77.7388 99.7805 69.6085 99.7805 60.8035C99.7805 51.9985 96.8576 43.8681 91.9304 37.3408C91.8508 37.2354 91.6188 36.7504 91.6097 35.6815C91.6012 34.687 91.7925 33.504 92.1627 32.3655C92.5372 31.2139 93.0399 30.276 93.5339 29.6853C93.8749 29.2777 94.0838 29.1757 94.1399 29.1542H131.43L131.635 29.1548C149.02 29.265 163.079 43.3923 163.079 60.8035C163.079 78.2829 148.909 92.4528 131.43 92.4528H94.1399C94.0838 92.4312 93.8749 92.3293 93.5339 91.9216C93.0399 91.3309 92.5372 90.393 92.1627 89.2414C91.7925 88.103 91.6012 86.92 91.6097 85.9254ZM91.6097 156.553C91.6188 155.484 91.8508 154.999 91.9304 154.893C96.8576 148.366 99.7805 140.236 99.7805 131.431C99.7805 122.626 96.8576 114.495 91.9304 107.968C91.8508 107.863 91.6188 107.378 91.6097 106.309C91.6012 105.314 91.7925 104.131 92.1627 102.993C92.5372 101.841 93.0399 100.903 93.5339 100.313C93.8749 99.905 94.0838 99.803 94.1399 99.7814H131.43L131.635 99.7821C149.02 99.8922 163.079 114.02 163.079 131.431C163.079 148.91 148.909 163.08 131.43 163.08H94.1399C94.0838 163.059 93.8749 162.957 93.5339 162.549C93.0399 161.958 92.5372 161.02 92.1627 159.869C91.7925 158.73 91.6012 157.547 91.6097 156.553ZM29.1539 60.5984C29.264 43.2136 43.3915 29.1542 60.8026 29.1542L61.0073 29.1548C78.3925 29.265 92.4519 43.3923 92.4519 60.8035C92.4519 78.2829 78.282 92.4528 60.8026 92.4528C43.3915 92.4528 29.264 78.3933 29.1539 61.0085C29.1535 60.9408 29.1532 60.8725 29.1532 60.8035C29.1532 60.7345 29.1535 60.6661 29.1539 60.5984ZM29.1532 131.431C29.1532 113.951 43.3231 99.7815 60.8026 99.7814L61.0073 99.7821C78.3925 99.8922 92.4519 114.02 92.4519 131.431C92.4519 148.91 78.282 163.08 60.8026 163.08C43.3231 163.08 29.1532 148.91 29.1532 131.431Z" fill="white"/>
<path d="M160.824 0.0585938C178.138 0.0586908 192.175 14.095 192.175 31.4092V160.825C192.175 178.139 178.138 192.175 160.824 192.175H31.4082C14.094 192.175 0.057688 178.139 0.0576172 160.825V31.4092C0.0576516 14.095 14.094 0.0586293 31.4082 0.0585938H160.824Z" stroke="black" stroke-width="0.116327"/>
</svg>

