<svg width="257" height="257" viewBox="0 0 257 257" fill="none" xmlns="http://www.w3.org/2000/svg">
<path fill-rule="evenodd" clip-rule="evenodd" d="M41.878 256.154C18.8352 256.154 0.155313 237.474 0.155273 214.432V41.877C0.155273 18.8342 18.8352 0.154297 41.878 0.154297H214.432C237.475 0.154297 256.155 18.8342 256.155 41.877V214.431C256.155 237.474 237.475 256.154 214.433 256.154H41.878Z" fill="black"/>
<path d="M29.1007 81.3923L29.1009 81.405C29.2067 98.1127 37.1999 112.95 49.5284 122.377C49.6656 122.482 50.0865 122.95 50.4645 124.132C50.8205 125.245 51.028 126.66 51.028 128.154C51.028 129.649 50.8205 131.063 50.4645 132.176C50.0865 133.359 49.6656 133.827 49.5284 133.932C37.1172 143.422 29.0998 158.395 29.0998 175.239C29.0998 175.243 29.0998 175.246 29.0998 175.25L29.1007 175.562L29.1009 175.575C29.2817 204.123 52.4799 227.21 81.0704 227.21H175.24L175.576 227.209C204.124 227.028 227.211 203.83 227.211 175.239C227.211 158.527 219.318 143.656 207.072 134.155L206.782 133.932C206.645 133.827 206.224 133.359 205.846 132.177C205.49 131.063 205.283 129.649 205.283 128.154C205.283 126.66 205.49 125.245 205.846 124.132C206.201 123.023 206.593 122.543 206.753 122.401L206.782 122.377C219.194 112.886 227.211 97.9133 227.211 81.0694C227.211 52.3668 203.943 29.0988 175.24 29.0988H81.0704C52.4799 29.0988 29.2817 52.1853 29.1009 80.7337C29.1002 80.8473 29.0998 80.9594 29.0998 81.0694C29.0998 81.073 29.0998 81.0767 29.0998 81.0803L29.1007 81.3923ZM122.147 114.565C122.159 113.14 122.468 112.493 122.574 112.353C129.144 103.65 133.041 92.8094 133.041 81.0694C133.041 69.3293 129.144 58.4889 122.574 49.7858C122.468 49.6452 122.159 48.9985 122.147 47.5734C122.135 46.2474 122.39 44.67 122.884 43.1521C123.383 41.6166 124.053 40.3661 124.712 39.5785C125.167 39.035 125.445 38.899 125.52 38.8703H175.24L175.513 38.8712C198.693 39.018 217.439 57.8545 217.439 81.0694C217.439 104.375 198.546 123.268 175.24 123.268H125.52C125.445 123.24 125.167 123.104 124.712 122.56C124.053 121.773 123.383 120.522 122.884 118.987C122.39 117.469 122.135 115.891 122.147 114.565ZM122.147 208.735C122.159 207.31 122.468 206.663 122.574 206.523C129.144 197.82 133.041 186.979 133.041 175.239C133.041 163.499 129.144 152.659 122.574 143.955C122.468 143.815 122.159 143.168 122.147 141.743C122.135 140.417 122.39 138.84 122.884 137.322C123.383 135.786 124.053 134.536 124.712 133.748C125.167 133.205 125.445 133.069 125.52 133.04H175.24L175.513 133.041C198.693 133.188 217.439 152.024 217.439 175.239C217.439 198.545 198.546 217.438 175.24 217.438H125.52C125.445 217.409 125.167 217.273 124.712 216.73C124.053 215.942 123.383 214.692 122.884 213.156C122.39 211.638 122.135 210.061 122.147 208.735ZM38.8722 80.796C39.019 57.6162 57.8557 38.8703 81.0704 38.8703L81.3434 38.8712C104.524 39.018 123.27 57.8545 123.27 81.0694C123.27 104.375 104.376 123.268 81.0704 123.268C57.8557 123.268 39.019 104.523 38.8722 81.3428C38.8716 81.2525 38.8713 81.1614 38.8713 81.0694C38.8713 80.9773 38.8716 80.8862 38.8722 80.796ZM38.8713 175.239C38.8713 151.933 57.7645 133.04 81.0704 133.04L81.3434 133.041C104.524 133.188 123.27 152.024 123.27 175.239C123.27 198.545 104.376 217.438 81.0704 217.438C57.7645 217.438 38.8713 198.545 38.8713 175.239Z" fill="white"/>
<path d="M214.433 0.0771484C237.518 0.0772815 256.232 18.7914 256.232 41.877V214.432C256.232 237.517 237.518 256.231 214.433 256.231H41.8779C18.7924 256.231 0.0782157 237.517 0.078125 214.432V41.877C0.0781716 18.7914 18.7923 0.0771951 41.8779 0.0771484H214.433Z" stroke="black" stroke-width="0.155103"/>
</svg>

