<svg width="33" height="33" viewBox="0 0 33 33" fill="none" xmlns="http://www.w3.org/2000/svg">
<path fill-rule="evenodd" clip-rule="evenodd" d="M5.23487 32.0195C2.35453 32.0195 0.0195362 29.6845 0.0195312 26.8042V5.23487C0.0195312 2.35452 2.35452 0.0195312 5.23487 0.0195312H26.8042C29.6845 0.0195312 32.0195 2.35452 32.0195 5.23487V26.8042C32.0195 29.6845 29.6845 32.0195 26.8042 32.0195H5.23487Z" fill="black"/>
<path d="M3.63771 10.1743L3.63773 10.1759C3.65096 12.2643 4.6501 14.1189 6.19118 15.2973C6.20832 15.3105 6.26093 15.3689 6.30819 15.5167C6.35268 15.6559 6.37862 15.8327 6.37862 16.0195C6.37862 16.2063 6.35268 16.3831 6.30819 16.5223C6.26093 16.6701 6.20832 16.7286 6.19118 16.7417C4.63977 17.928 3.6376 19.7996 3.6376 21.9051C3.6376 21.9056 3.6376 21.906 3.6376 21.9065L3.63771 21.9455L3.63773 21.9471C3.66033 25.5156 6.56011 28.4015 10.1339 28.4015H21.9051L21.9472 28.4013C25.5156 28.3787 28.4015 25.4789 28.4015 21.9051C28.4015 19.8161 27.4149 17.9573 25.8842 16.7696L25.8479 16.7417C25.8308 16.7286 25.7782 16.6701 25.7309 16.5223C25.6864 16.3832 25.6605 16.2063 25.6605 16.0195C25.6605 15.8327 25.6864 15.6559 25.7309 15.5167C25.7752 15.3781 25.8242 15.3181 25.8443 15.3003L25.8479 15.2973C27.3993 14.111 28.4015 12.2394 28.4015 10.1339C28.4015 6.5461 25.493 3.63759 21.9051 3.63759H10.1339C6.56011 3.63759 3.66033 6.52341 3.63773 10.092C3.63764 10.1062 3.6376 10.1202 3.6376 10.1339C3.6376 10.1344 3.6376 10.1348 3.6376 10.1353L3.63771 10.1743ZM15.2684 14.3209C15.27 14.1428 15.3086 14.0619 15.3219 14.0444C16.1431 12.9565 16.6302 11.6014 16.6302 10.1339C16.6302 8.66641 16.1431 7.31136 15.3219 6.22347C15.3086 6.2059 15.27 6.12506 15.2684 5.94692C15.267 5.78117 15.2989 5.58399 15.3606 5.39426C15.423 5.20232 15.5068 5.046 15.5892 4.94756C15.646 4.87962 15.6808 4.86262 15.6901 4.85903H21.9051L21.9393 4.85914C24.8368 4.87749 27.18 7.23206 27.18 10.1339C27.18 13.0472 24.8184 15.4088 21.9051 15.4088H15.6901C15.6808 15.4052 15.646 15.3882 15.5892 15.3203C15.5068 15.2218 15.423 15.0655 15.3606 14.8736C15.2989 14.6838 15.267 14.4867 15.2684 14.3209ZM15.2684 26.0921C15.27 25.914 15.3086 25.8331 15.3219 25.8156C16.1431 24.7277 16.6302 23.3726 16.6302 21.9051C16.6302 20.4376 16.1431 19.0826 15.3219 17.9947C15.3086 17.9771 15.27 17.8963 15.2684 17.7181C15.267 17.5524 15.2989 17.3552 15.3606 17.1655C15.423 16.9735 15.5068 16.8172 15.5892 16.7188C15.646 16.6508 15.6808 16.6338 15.6901 16.6302H21.9051L21.9393 16.6304C24.8368 16.6487 27.18 19.0033 27.18 21.9051C27.18 24.8184 24.8184 27.18 21.9051 27.18H15.6901C15.6808 27.1764 15.646 27.1594 15.5892 27.0915C15.5068 26.993 15.423 26.8367 15.3606 26.6448C15.2989 26.455 15.267 26.2579 15.2684 26.0921ZM4.85915 10.0997C4.8775 7.20227 7.23208 4.85903 10.1339 4.85903L10.168 4.85914C13.0656 4.87749 15.4088 7.23206 15.4088 10.1339C15.4088 13.0472 13.0472 15.4088 10.1339 15.4088C7.23208 15.4088 4.8775 13.0656 4.85915 10.1681C4.85908 10.1568 4.85904 10.1454 4.85904 10.1339C4.85904 10.1224 4.85908 10.111 4.85915 10.0997ZM4.85904 21.9051C4.85904 18.9919 7.22069 16.6302 10.1339 16.6302L10.168 16.6304C13.0656 16.6487 15.4088 19.0033 15.4088 21.9051C15.4088 24.8184 13.0472 27.18 10.1339 27.18C7.22069 27.18 4.85904 24.8184 4.85904 21.9051Z" fill="white"/>
<path d="M26.8037 0.00976562C29.6894 0.00976562 32.0293 2.34964 32.0293 5.23535V26.8037C32.0293 29.6894 29.6894 32.0293 26.8037 32.0293H5.23535C2.34965 32.0293 0.00977058 29.6894 0.00976562 26.8037V5.23535C0.00976562 2.34964 2.34964 0.00976562 5.23535 0.00976562H26.8037Z" stroke="black" stroke-width="0.0193879"/>
</svg>

