<svg width="49" height="49" viewBox="0 0 49 49" fill="none" xmlns="http://www.w3.org/2000/svg">
<path fill-rule="evenodd" clip-rule="evenodd" d="M7.85231 48.0293C3.53179 48.0293 0.0293043 44.5268 0.0292969 40.2063V7.85231C0.0292969 3.53178 3.53178 0.0292969 7.85231 0.0292969H40.2063C44.5268 0.0292969 48.0293 3.53178 48.0293 7.85231V40.2063C48.0293 44.5268 44.5268 48.0293 40.2063 48.0293H7.85231Z" fill="black"/>
<path d="M5.45657 15.2614L5.4566 15.2638C5.47644 18.3965 6.97516 21.1784 9.28677 22.946C9.31248 22.9657 9.3914 23.0534 9.46228 23.2751C9.52902 23.4839 9.56793 23.7491 9.56793 24.0293C9.56793 24.3095 9.52902 24.5747 9.46228 24.7834C9.3914 25.0051 9.31248 25.0929 9.28677 25.1126C6.95965 26.892 5.4564 29.6994 5.4564 32.8577V32.8597L5.45657 32.9182L5.4566 32.9206C5.4905 38.2735 9.84016 42.6022 15.2009 42.6022H32.8577L32.9207 42.602C38.2735 42.5681 42.6022 38.2184 42.6022 32.8577C42.6022 29.7241 41.1224 26.9359 38.8262 25.1545L38.7719 25.1126C38.7461 25.0929 38.6672 25.0052 38.5963 24.7835C38.5296 24.5747 38.4907 24.3095 38.4907 24.0293C38.4907 23.7491 38.5296 23.4838 38.5963 23.2751C38.6628 23.0672 38.7363 22.9771 38.7664 22.9505L38.7719 22.946C41.099 21.1665 42.6022 18.3591 42.6022 15.2009C42.6022 9.81914 38.2394 5.45639 32.8577 5.45638H15.2009C9.84016 5.45639 5.4905 9.78511 5.4566 15.1379C5.45646 15.1592 5.4564 15.1803 5.4564 15.2009V15.2029L5.45657 15.2614ZM22.9027 21.4814C22.9049 21.2141 22.9629 21.0929 22.9828 21.0665C24.2146 19.4347 24.9454 17.4021 24.9454 15.2009C24.9454 12.9996 24.2146 10.967 22.9828 9.3352C22.9629 9.30885 22.9049 9.18759 22.9027 8.92039C22.9005 8.67175 22.9484 8.37599 23.0409 8.09138C23.1345 7.80348 23.2602 7.569 23.3837 7.42134C23.469 7.31943 23.5212 7.29393 23.5352 7.28854H32.8577L32.9089 7.28871C37.2552 7.31624 40.77 10.8481 40.77 15.2009C40.77 19.5707 37.2276 23.1132 32.8577 23.1132H23.5352C23.5212 23.1078 23.469 23.0823 23.3837 22.9804C23.2602 22.8327 23.1345 22.5983 23.0409 22.3104C22.9484 22.0258 22.9005 21.73 22.9027 21.4814ZM22.9027 39.1382C22.9049 38.871 22.9629 38.7497 22.9828 38.7234C24.2146 37.0915 24.9454 35.0589 24.9454 32.8577C24.9454 30.6564 24.2146 28.6239 22.9828 26.992C22.9629 26.9657 22.9049 26.8444 22.9027 26.5772C22.9005 26.3286 22.9484 26.0328 23.0409 25.7482C23.1345 25.4603 23.2602 25.2258 23.3837 25.0782C23.469 24.9762 23.5212 24.9507 23.5352 24.9454H32.8577L32.9089 24.9455C37.2552 24.9731 40.77 28.5049 40.77 32.8577C40.77 37.2275 37.2276 40.77 32.8577 40.77H23.5352C23.5212 40.7646 23.469 40.7391 23.3837 40.6372C23.2602 40.4896 23.1345 40.2551 23.0409 39.9672C22.9484 39.6826 22.9005 39.3868 22.9027 39.1382ZM7.28872 15.1496C7.31625 10.8034 10.8481 7.28854 15.2009 7.28854L15.2521 7.28871C19.5984 7.31624 23.1132 10.8481 23.1132 15.2009C23.1132 19.5707 19.5707 23.1132 15.2009 23.1132C10.8481 23.1132 7.31625 19.5983 7.28872 15.2521C7.28862 15.2352 7.28855 15.2181 7.28855 15.2009C7.28855 15.1836 7.28862 15.1665 7.28872 15.1496ZM7.28855 32.8577C7.28855 28.4878 10.831 24.9454 15.2009 24.9454L15.2521 24.9455C19.5984 24.9731 23.1132 28.5049 23.1132 32.8577C23.1132 37.2275 19.5707 40.77 15.2009 40.77C10.831 40.77 7.28855 37.2275 7.28855 32.8577Z" fill="white"/>
<path d="M40.2061 0.0146484C44.5346 0.0146484 48.0439 3.52398 48.0439 7.85254V40.2061C48.0439 44.5346 44.5346 48.0439 40.2061 48.0439H7.85254C3.52399 48.0439 0.0146559 44.5346 0.0146484 40.2061V7.85254C0.0146484 3.52398 3.52398 0.0146484 7.85254 0.0146484H40.2061Z" stroke="black" stroke-width="0.0290818"/>
</svg>

