<svg width="513" height="513" viewBox="0 0 513 513" fill="none" xmlns="http://www.w3.org/2000/svg">
<path fill-rule="evenodd" clip-rule="evenodd" d="M83.7555 512.31C37.67 512.31 0.310138 474.951 0.310059 428.865V83.756C0.310059 37.6704 37.6699 0.310547 83.7555 0.310547H428.864C474.95 0.310547 512.31 37.6704 512.31 83.756V428.865C512.31 474.95 474.95 512.31 428.865 512.31H83.7555Z" fill="black"/>
<path d="M58.2009 162.787L58.2013 162.812C58.4129 196.227 74.3992 225.901 99.0564 244.756C99.3307 244.965 100.172 245.901 100.929 248.266C101.64 250.493 102.055 253.321 102.055 256.31C102.055 259.299 101.64 262.128 100.929 264.355C100.172 266.72 99.3307 267.655 99.0564 267.865C74.2338 286.846 58.1991 316.792 58.1991 350.48C58.1991 350.487 58.1991 350.495 58.1991 350.502L58.2009 351.126L58.2013 351.151C58.5629 408.248 104.959 454.421 162.14 454.421H350.48L351.152 454.419C408.248 454.058 454.421 407.661 454.421 350.48C454.421 317.055 438.636 287.315 414.144 268.312L413.564 267.866C413.29 267.656 412.448 266.72 411.692 264.355C410.98 262.128 410.565 259.3 410.565 256.31C410.565 253.321 410.98 250.492 411.692 248.266C412.401 246.048 413.185 245.087 413.506 244.803L413.564 244.755C438.387 225.774 454.421 195.829 454.421 162.141C454.421 104.736 407.885 58.1995 350.48 58.1995H162.14C104.959 58.1995 58.5629 104.373 58.2013 161.469C58.1998 161.696 58.1991 161.921 58.1991 162.141C58.1991 162.148 58.1991 162.155 58.1991 162.162L58.2009 162.787ZM244.293 229.133C244.317 226.282 244.936 224.989 245.148 224.708C258.287 207.302 266.082 185.621 266.082 162.141C266.082 138.661 258.287 116.98 245.148 99.5735C244.936 99.2924 244.317 97.999 244.293 95.1488C244.27 92.4967 244.78 89.3419 245.767 86.3061C246.766 83.2352 248.106 80.7341 249.424 79.159C250.333 78.0719 250.89 77.8 251.04 77.7425H350.48L351.026 77.7443C397.386 78.0379 434.878 115.711 434.878 162.141C434.878 208.752 397.092 246.539 350.48 246.539H251.04C250.89 246.481 250.333 246.209 249.424 245.122C248.106 243.547 246.766 241.046 245.767 237.975C244.78 234.939 244.27 231.785 244.293 229.133ZM244.293 417.472C244.317 414.622 244.936 413.328 245.148 413.047C258.287 395.641 266.082 373.96 266.082 350.48C266.082 327 258.287 305.319 245.148 287.913C244.936 287.632 244.317 286.338 244.293 283.488C244.27 280.836 244.78 277.681 245.767 274.646C246.766 271.575 248.106 269.074 249.424 267.498C250.333 266.411 250.89 266.139 251.04 266.082H350.48L351.026 266.084C397.386 266.377 434.878 304.05 434.878 350.48C434.878 397.092 397.092 434.878 350.48 434.878H251.04C250.89 434.821 250.333 434.549 249.424 433.462C248.106 431.887 246.766 429.386 245.767 426.315C244.78 423.279 244.27 420.124 244.293 417.472ZM77.7439 161.594C78.0376 115.234 115.711 77.7425 162.14 77.7425L162.686 77.7443C209.047 78.0379 246.539 115.711 246.539 162.141C246.539 208.752 208.752 246.539 162.14 246.539C115.711 246.539 78.0376 209.047 77.7439 162.687C77.7428 162.507 77.7421 162.325 77.7421 162.141C77.7421 161.957 77.7428 161.774 77.7439 161.594ZM77.7421 350.48C77.7421 303.868 115.529 266.082 162.14 266.082L162.686 266.084C209.047 266.377 246.539 304.05 246.539 350.48C246.539 397.092 208.752 434.878 162.14 434.878C115.529 434.878 77.7421 397.092 77.7421 350.48Z" fill="white"/>
<path d="M428.864 0.155273C475.035 0.155273 512.465 37.5846 512.465 83.7559V428.864C512.465 475.036 475.036 512.465 428.865 512.465H83.7554C37.5843 512.465 0.154967 475.036 0.154785 428.865V83.7559C0.154878 37.5847 37.5842 0.155367 83.7554 0.155273H428.864Z" stroke="black" stroke-width="0.310206"/>
</svg>

