<svg width="97" height="97" viewBox="0 0 97 97" fill="none" xmlns="http://www.w3.org/2000/svg">
<path fill-rule="evenodd" clip-rule="evenodd" d="M15.7041 96.0585C7.06309 96.0585 0.0581203 89.0536 0.0581055 80.4126V15.7046C0.0581055 7.06356 7.06307 0.0585938 15.7041 0.0585938H80.412C89.0531 0.0585938 96.0581 7.06356 96.0581 15.7046V80.4125C96.0581 89.0536 89.0531 96.0585 80.4121 96.0585H15.7041Z" fill="black"/>
<path d="M10.9126 30.5228L10.9127 30.5276C10.9524 36.793 13.9498 42.3568 18.573 45.892C18.6245 45.9314 18.7823 46.1068 18.9241 46.5502C19.0576 46.9677 19.1354 47.4981 19.1354 48.0586C19.1354 48.619 19.0576 49.1494 18.9241 49.5669C18.7823 50.0103 18.6245 50.1858 18.573 50.2251C13.9188 53.784 10.9123 59.3989 10.9123 65.7154C10.9123 65.7167 10.9123 65.7181 10.9123 65.7195L10.9126 65.8365L10.9127 65.8413C10.9805 76.5469 19.6798 85.2043 30.4013 85.2044H65.7149L65.841 85.204C76.5464 85.1362 85.2039 76.4368 85.2039 65.7154C85.2039 59.4482 82.2442 53.8719 77.652 50.3089L77.5432 50.2252C77.4918 50.1858 77.334 50.0104 77.1922 49.567C77.0587 49.1495 76.9809 48.619 76.9809 48.0586C76.9809 47.4981 77.0587 46.9677 77.1922 46.5502C77.3251 46.1344 77.4722 45.9542 77.5324 45.9009L77.5432 45.892C82.1974 42.333 85.2039 36.7182 85.2039 30.4017C85.2039 19.6383 76.4784 10.9128 65.7149 10.9128H30.4013C19.6798 10.9128 10.9805 19.5702 10.9127 30.2759C10.9124 30.3185 10.9123 30.3605 10.9123 30.4017C10.9123 30.4031 10.9123 30.4045 10.9123 30.4058L10.9126 30.5228ZM45.8048 42.9627C45.8094 42.4283 45.9254 42.1858 45.9652 42.1331C48.4288 38.8694 49.8903 34.8042 49.8903 30.4017C49.8903 25.9992 48.4288 21.9341 45.9652 18.6704C45.9254 18.6177 45.8094 18.3752 45.8048 17.8408C45.8006 17.3435 45.8962 16.752 46.0813 16.1828C46.2686 15.607 46.5199 15.138 46.767 14.8427C46.9375 14.6389 47.0419 14.5879 47.0699 14.5771H65.7149L65.8173 14.5774C74.5099 14.6325 81.5396 21.6962 81.5396 30.4017C81.5396 39.1415 74.4546 46.2264 65.7149 46.2264H47.0699C47.0419 46.2156 46.9375 46.1646 46.767 45.9608C46.5199 45.6655 46.2686 45.1965 46.0813 44.6207C45.8962 44.0515 45.8006 43.46 45.8048 42.9627ZM45.8048 78.2764C45.8094 77.7419 45.9254 77.4994 45.9652 77.4467C48.4288 74.1831 49.8903 70.1179 49.8903 65.7154C49.8903 61.3129 48.4288 57.2477 45.9652 53.984C45.9254 53.9313 45.8094 53.6888 45.8048 53.1544C45.8006 52.6571 45.8962 52.0656 46.0813 51.4964C46.2686 50.9206 46.5199 50.4517 46.767 50.1563C46.9375 49.9525 47.0419 49.9015 47.0699 49.8907H65.7149L65.8173 49.8911C74.5099 49.9461 81.5396 57.0098 81.5396 65.7154C81.5396 74.4551 74.4546 81.54 65.7149 81.54H47.0699C47.0419 81.5293 46.9375 81.4783 46.767 81.2744C46.5199 80.9791 46.2686 80.5102 46.0813 79.9344C45.8962 79.3651 45.8006 78.7736 45.8048 78.2764ZM14.577 30.2992C14.632 21.6068 21.6958 14.5771 30.4013 14.5771L30.5036 14.5774C39.1963 14.6325 46.2259 21.6962 46.2259 30.4017C46.2259 39.1415 39.141 46.2264 30.4013 46.2264C21.6958 46.2264 14.632 39.1967 14.577 30.5043C14.5767 30.4704 14.5766 30.4363 14.5766 30.4017C14.5766 30.3672 14.5767 30.3331 14.577 30.2992ZM14.5766 65.7154C14.5766 56.9757 21.6616 49.8907 30.4013 49.8907L30.5036 49.8911C39.1963 49.9461 46.2259 57.0098 46.2259 65.7154C46.2259 74.4551 39.141 81.54 30.4013 81.54C21.6616 81.54 14.5766 74.4551 14.5766 65.7154Z" fill="white"/>
<path d="M80.4116 0.0292969C89.0687 0.0292969 96.0874 7.04795 96.0874 15.7051V80.4121C96.0874 89.0692 89.0687 96.0879 80.4116 96.0879H15.7046C7.04748 96.0879 0.0288235 89.0692 0.0288086 80.4121V15.7051C0.0288086 7.04795 7.04747 0.0292969 15.7046 0.0292969H80.4116Z" stroke="black" stroke-width="0.0581637"/>
</svg>

